<svg xmlns="http://www.w3.org/2000/svg" viewBox="0 0 64 64" role="img" aria-labelledby="title">
  <title>Clean Surface Pressure Washing</title>
  <defs>
    <linearGradient id="bg" x1="0%" y1="0%" x2="100%" y2="100%">
      <stop offset="0%" stop-color="#0f766e" />
      <stop offset="100%" stop-color="#22c55e" />
    </linearGradient>
    <linearGradient id="spray" x1="0%" y1="0%" x2="100%" y2="100%">
      <stop offset="0%" stop-color="#ffffff" stop-opacity="0.95" />
      <stop offset="100%" stop-color="#dbeafe" stop-opacity="0.9" />
    </linearGradient>
  </defs>
  <rect width="64" height="64" rx="18" fill="url(#bg)" />
  <path d="M16 22c7 0 11 4 11 10 0 9-8 15-8 22 0 2 1 4 3 6-8-2-13-9-13-17 0-6 2-11 7-16 3-3 4-5 4-5h-4Z" fill="#ecfeff" opacity="0.9" />
  <path d="M26 18c10 0 18 6 22 16l-5 2c-2-6-7-10-15-10-4 0-8 1-11 3l-3-4c4-5 8-7 12-7Z" fill="url(#spray)" />
  <circle cx="45" cy="22" r="3.5" fill="#ffffff" />
  <circle cx="52" cy="28" r="2.5" fill="#dbeafe" />
  <circle cx="47" cy="34" r="2" fill="#ffffff" opacity="0.9" />
</svg>
